<svg xmlns="http://www.w3.org/2000/svg" width="1400" height="760" viewBox="0 0 1400 760">
<rect width="1400" height="760" rx="26" fill="#ffffff"/>
<text x="82" y="60" font-family="Arial, Helvetica, sans-serif" font-size="15" font-weight="700" letter-spacing="2.2" fill="#1677ff">TRADINGNINVESTMENT RESEARCH</text>
<text x="82" y="108" font-family="Arial, Helvetica, sans-serif" font-size="38" font-weight="800" fill="#102a43">S&amp;P 500 Returns by Year</text>
<text x="82" y="143" font-family="Arial, Helvetica, sans-serif" font-size="18" font-weight="500" fill="#607086">Historical Annual Price Returns • 1928–2026 YTD</text>
<line x1="82" y1="225.50" x2="1352" y2="225.50" stroke="#e7edf4" stroke-width="1"/>
<text x="68" y="230.50" text-anchor="end" font-family="Arial, Helvetica, sans-serif" font-size="12" fill="#7b8da3">+40%</text>
<line x1="82" y1="306.50" x2="1352" y2="306.50" stroke="#e7edf4" stroke-width="1"/>
<text x="68" y="311.50" text-anchor="end" font-family="Arial, Helvetica, sans-serif" font-size="12" fill="#7b8da3">+20%</text>
<line x1="82" y1="387.50" x2="1352" y2="387.50" stroke="#9aacbf" stroke-width="1.5"/>
<text x="68" y="392.50" text-anchor="end" font-family="Arial, Helvetica, sans-serif" font-size="12" fill="#7b8da3">+0%</text>
<line x1="82" y1="468.50" x2="1352" y2="468.50" stroke="#e7edf4" stroke-width="1"/>
<text x="68" y="473.50" text-anchor="end" font-family="Arial, Helvetica, sans-serif" font-size="12" fill="#7b8da3">-20%</text>
<line x1="82" y1="549.50" x2="1352" y2="549.50" stroke="#e7edf4" stroke-width="1"/>
<text x="68" y="554.50" text-anchor="end" font-family="Arial, Helvetica, sans-serif" font-size="12" fill="#7b8da3">-40%</text>
<rect x="83.80" y="234.08" width="9.24" height="153.42" rx="1.5" fill="#1f9d68"/>
<rect x="96.62" y="387.50" width="9.24" height="48.23" rx="1.5" fill="#d9534f"/>
<rect x="109.45" y="387.50" width="9.24" height="115.36" rx="1.5" fill="#d9534f"/>
<rect x="122.28" y="387.50" width="9.24" height="190.62" rx="1.5" fill="#d9534f"/>
<rect x="135.11" y="387.50" width="9.24" height="59.85" rx="1.5" fill="#d9534f"/>
<rect x="147.94" y="209.00" width="9.24" height="178.50" rx="1.5" fill="#1f9d68"/>
<rect x="160.77" y="387.50" width="9.24" height="19.09" rx="1.5" fill="#d9534f"/>
<rect x="173.59" y="219.96" width="9.24" height="167.54" rx="1.5" fill="#1f9d68"/>
<rect x="186.42" y="274.41" width="9.24" height="113.09" rx="1.5" fill="#1f9d68"/>
<rect x="199.25" y="387.50" width="9.24" height="156.30" rx="1.5" fill="#d9534f"/>
<rect x="212.08" y="288.07" width="9.24" height="99.43" rx="1.5" fill="#1f9d68"/>
<rect x="224.91" y="387.50" width="9.24" height="20.96" rx="1.5" fill="#d9534f"/>
<rect x="237.74" y="387.50" width="9.24" height="61.11" rx="1.5" fill="#d9534f"/>
<rect x="250.56" y="387.50" width="9.24" height="72.35" rx="1.5" fill="#d9534f"/>
<rect x="263.39" y="337.17" width="9.24" height="50.33" rx="1.5" fill="#1f9d68"/>
<rect x="276.22" y="308.74" width="9.24" height="78.76" rx="1.5" fill="#1f9d68"/>
<rect x="289.05" y="331.63" width="9.24" height="55.87" rx="1.5" fill="#1f9d68"/>
<rect x="301.88" y="263.07" width="9.24" height="124.43" rx="1.5" fill="#1f9d68"/>
<rect x="314.71" y="387.50" width="9.24" height="48.06" rx="1.5" fill="#d9534f"/>
<rect x="327.53" y="387.50" width="9.24" height="1.00" rx="1.5" fill="#1f9d68"/>
<rect x="340.36" y="387.50" width="9.24" height="2.65" rx="1.5" fill="#d9534f"/>
<rect x="353.19" y="345.13" width="9.24" height="42.37" rx="1.5" fill="#1f9d68"/>
<rect x="366.02" y="299.70" width="9.24" height="87.80" rx="1.5" fill="#1f9d68"/>
<rect x="378.85" y="321.29" width="9.24" height="66.21" rx="1.5" fill="#1f9d68"/>
<rect x="391.67" y="339.79" width="9.24" height="47.71" rx="1.5" fill="#1f9d68"/>
<rect x="404.50" y="387.50" width="9.24" height="26.83" rx="1.5" fill="#d9534f"/>
<rect x="417.33" y="205.16" width="9.24" height="182.34" rx="1.5" fill="#1f9d68"/>
<rect x="430.16" y="280.57" width="9.24" height="106.93" rx="1.5" fill="#1f9d68"/>
<rect x="442.99" y="376.90" width="9.24" height="10.60" rx="1.5" fill="#1f9d68"/>
<rect x="455.82" y="387.50" width="9.24" height="57.97" rx="1.5" fill="#d9534f"/>
<rect x="468.64" y="233.36" width="9.24" height="154.14" rx="1.5" fill="#1f9d68"/>
<rect x="481.47" y="353.17" width="9.24" height="34.33" rx="1.5" fill="#1f9d68"/>
<rect x="494.30" y="387.50" width="9.24" height="12.04" rx="1.5" fill="#d9534f"/>
<rect x="507.13" y="293.83" width="9.24" height="93.67" rx="1.5" fill="#1f9d68"/>
<rect x="519.96" y="387.50" width="9.24" height="47.83" rx="1.5" fill="#d9534f"/>
<rect x="532.79" y="310.99" width="9.24" height="76.51" rx="1.5" fill="#1f9d68"/>
<rect x="545.61" y="334.97" width="9.24" height="52.53" rx="1.5" fill="#1f9d68"/>
<rect x="558.44" y="350.80" width="9.24" height="36.70" rx="1.5" fill="#1f9d68"/>
<rect x="571.27" y="387.50" width="9.24" height="53.02" rx="1.5" fill="#d9534f"/>
<rect x="584.10" y="306.13" width="9.24" height="81.37" rx="1.5" fill="#1f9d68"/>
<rect x="596.93" y="356.48" width="9.24" height="31.02" rx="1.5" fill="#1f9d68"/>
<rect x="609.76" y="387.50" width="9.24" height="46.01" rx="1.5" fill="#d9534f"/>
<rect x="622.58" y="387.10" width="9.24" height="1.00" rx="1.5" fill="#1f9d68"/>
<rect x="635.41" y="343.81" width="9.24" height="43.69" rx="1.5" fill="#1f9d68"/>
<rect x="648.24" y="324.19" width="9.24" height="63.31" rx="1.5" fill="#1f9d68"/>
<rect x="661.07" y="387.50" width="9.24" height="70.33" rx="1.5" fill="#d9534f"/>
<rect x="673.90" y="387.50" width="9.24" height="120.36" rx="1.5" fill="#d9534f"/>
<rect x="686.73" y="259.73" width="9.24" height="127.77" rx="1.5" fill="#1f9d68"/>
<rect x="699.55" y="309.95" width="9.24" height="77.55" rx="1.5" fill="#1f9d68"/>
<rect x="712.38" y="387.50" width="9.24" height="46.58" rx="1.5" fill="#d9534f"/>
<rect x="725.21" y="383.20" width="9.24" height="4.30" rx="1.5" fill="#1f9d68"/>
<rect x="738.04" y="337.65" width="9.24" height="49.85" rx="1.5" fill="#1f9d68"/>
<rect x="750.87" y="283.12" width="9.24" height="104.38" rx="1.5" fill="#1f9d68"/>
<rect x="763.69" y="387.50" width="9.24" height="39.41" rx="1.5" fill="#d9534f"/>
<rect x="776.52" y="327.72" width="9.24" height="59.78" rx="1.5" fill="#1f9d68"/>
<rect x="789.35" y="317.55" width="9.24" height="69.95" rx="1.5" fill="#1f9d68"/>
<rect x="802.18" y="381.83" width="9.24" height="5.67" rx="1.5" fill="#1f9d68"/>
<rect x="815.01" y="280.85" width="9.24" height="106.65" rx="1.5" fill="#1f9d68"/>
<rect x="827.84" y="328.29" width="9.24" height="59.21" rx="1.5" fill="#1f9d68"/>
<rect x="840.66" y="379.29" width="9.24" height="8.21" rx="1.5" fill="#1f9d68"/>
<rect x="853.49" y="337.28" width="9.24" height="50.22" rx="1.5" fill="#1f9d68"/>
<rect x="866.32" y="277.14" width="9.24" height="110.36" rx="1.5" fill="#1f9d68"/>
<rect x="879.15" y="387.50" width="9.24" height="26.56" rx="1.5" fill="#d9534f"/>
<rect x="891.98" y="280.96" width="9.24" height="106.54" rx="1.5" fill="#1f9d68"/>
<rect x="904.81" y="369.42" width="9.24" height="18.08" rx="1.5" fill="#1f9d68"/>
<rect x="917.63" y="358.93" width="9.24" height="28.57" rx="1.5" fill="#1f9d68"/>
<rect x="930.46" y="387.50" width="9.24" height="6.23" rx="1.5" fill="#d9534f"/>
<rect x="943.29" y="249.35" width="9.24" height="138.15" rx="1.5" fill="#1f9d68"/>
<rect x="956.12" y="305.43" width="9.24" height="82.07" rx="1.5" fill="#1f9d68"/>
<rect x="968.95" y="261.92" width="9.24" height="125.58" rx="1.5" fill="#1f9d68"/>
<rect x="981.78" y="279.49" width="9.24" height="108.01" rx="1.5" fill="#1f9d68"/>
<rect x="994.60" y="308.42" width="9.24" height="79.08" rx="1.5" fill="#1f9d68"/>
<rect x="1007.43" y="387.50" width="9.24" height="41.06" rx="1.5" fill="#d9534f"/>
<rect x="1020.26" y="387.50" width="9.24" height="52.82" rx="1.5" fill="#d9534f"/>
<rect x="1033.09" y="387.50" width="9.24" height="94.63" rx="1.5" fill="#d9534f"/>
<rect x="1045.92" y="280.66" width="9.24" height="106.84" rx="1.5" fill="#1f9d68"/>
<rect x="1058.75" y="351.08" width="9.24" height="36.42" rx="1.5" fill="#1f9d68"/>
<rect x="1071.57" y="375.35" width="9.24" height="12.15" rx="1.5" fill="#1f9d68"/>
<rect x="1084.40" y="332.34" width="9.24" height="55.16" rx="1.5" fill="#1f9d68"/>
<rect x="1097.23" y="373.21" width="9.24" height="14.29" rx="1.5" fill="#1f9d68"/>
<rect x="1110.06" y="387.50" width="9.24" height="155.87" rx="1.5" fill="#d9534f"/>
<rect x="1122.89" y="292.51" width="9.24" height="94.99" rx="1.5" fill="#1f9d68"/>
<rect x="1135.72" y="335.73" width="9.24" height="51.77" rx="1.5" fill="#1f9d68"/>
<rect x="1148.54" y="387.50" width="9.24" height="1.00" rx="1.5" fill="#d9534f"/>
<rect x="1161.37" y="333.21" width="9.24" height="54.29" rx="1.5" fill="#1f9d68"/>
<rect x="1174.20" y="267.62" width="9.24" height="119.88" rx="1.5" fill="#1f9d68"/>
<rect x="1187.03" y="341.37" width="9.24" height="46.13" rx="1.5" fill="#1f9d68"/>
<rect x="1199.86" y="387.50" width="9.24" height="2.94" rx="1.5" fill="#d9534f"/>
<rect x="1212.68" y="348.88" width="9.24" height="38.62" rx="1.5" fill="#1f9d68"/>
<rect x="1225.51" y="308.85" width="9.24" height="78.65" rx="1.5" fill="#1f9d68"/>
<rect x="1238.34" y="387.50" width="9.24" height="25.26" rx="1.5" fill="#d9534f"/>
<rect x="1251.17" y="270.54" width="9.24" height="116.96" rx="1.5" fill="#1f9d68"/>
<rect x="1264.00" y="321.65" width="9.24" height="65.85" rx="1.5" fill="#1f9d68"/>
<rect x="1276.83" y="278.58" width="9.24" height="108.92" rx="1.5" fill="#1f9d68"/>
<rect x="1289.65" y="387.50" width="9.24" height="78.74" rx="1.5" fill="#d9534f"/>
<rect x="1302.48" y="289.37" width="9.24" height="98.13" rx="1.5" fill="#1f9d68"/>
<rect x="1315.31" y="293.10" width="9.24" height="94.40" rx="1.5" fill="#1f9d68"/>
<rect x="1328.14" y="321.13" width="9.24" height="66.37" rx="1.5" fill="#1f9d68"/>
<rect x="1340.97" y="339.49" width="9.24" height="48.01" rx="1.5" fill="#1f9d68"/>
<text x="88.41" y="618" text-anchor="middle" font-family="Arial, Helvetica, sans-serif" font-size="11" fill="#6c7d90">1928</text>
<text x="242.35" y="618" text-anchor="middle" font-family="Arial, Helvetica, sans-serif" font-size="11" fill="#6c7d90">1940</text>
<text x="370.64" y="618" text-anchor="middle" font-family="Arial, Helvetica, sans-serif" font-size="11" fill="#6c7d90">1950</text>
<text x="498.92" y="618" text-anchor="middle" font-family="Arial, Helvetica, sans-serif" font-size="11" fill="#6c7d90">1960</text>
<text x="627.20" y="618" text-anchor="middle" font-family="Arial, Helvetica, sans-serif" font-size="11" fill="#6c7d90">1970</text>
<text x="755.48" y="618" text-anchor="middle" font-family="Arial, Helvetica, sans-serif" font-size="11" fill="#6c7d90">1980</text>
<text x="883.77" y="618" text-anchor="middle" font-family="Arial, Helvetica, sans-serif" font-size="11" fill="#6c7d90">1990</text>
<text x="1012.05" y="618" text-anchor="middle" font-family="Arial, Helvetica, sans-serif" font-size="11" fill="#6c7d90">2000</text>
<text x="1140.33" y="618" text-anchor="middle" font-family="Arial, Helvetica, sans-serif" font-size="11" fill="#6c7d90">2010</text>
<text x="1268.62" y="618" text-anchor="middle" font-family="Arial, Helvetica, sans-serif" font-size="11" fill="#6c7d90">2020</text>
<text x="1345.59" y="618" text-anchor="middle" font-family="Arial, Helvetica, sans-serif" font-size="11" fill="#6c7d90">2026 YTD</text>
<text x="82.00" y="650" font-family="Arial, Helvetica, sans-serif" font-size="25" font-weight="800" fill="#102a43">+8.10%</text>
<text x="82.00" y="676" font-family="Arial, Helvetica, sans-serif" font-size="11" font-weight="700" letter-spacing="1" fill="#74869a">AVERAGE ANNUAL RETURN</text>
<text x="399.50" y="650" font-family="Arial, Helvetica, sans-serif" font-size="25" font-weight="800" fill="#102a43">68.37%</text>
<text x="399.50" y="676" font-family="Arial, Helvetica, sans-serif" font-size="11" font-weight="700" letter-spacing="1" fill="#74869a">NON-NEGATIVE YEARS</text>
<text x="717.00" y="650" font-family="Arial, Helvetica, sans-serif" font-size="25" font-weight="800" fill="#102a43">+45.02%</text>
<text x="717.00" y="676" font-family="Arial, Helvetica, sans-serif" font-size="11" font-weight="700" letter-spacing="1" fill="#74869a">BEST YEAR • 1954</text>
<text x="1034.50" y="650" font-family="Arial, Helvetica, sans-serif" font-size="25" font-weight="800" fill="#102a43">-47.07%</text>
<text x="1034.50" y="676" font-family="Arial, Helvetica, sans-serif" font-size="11" font-weight="700" letter-spacing="1" fill="#74869a">WORST YEAR • 1931</text>
<text x="82" y="728" font-family="Arial, Helvetica, sans-serif" font-size="11" fill="#8797a8">Price return • Dividends excluded • Source: Yahoo Finance — S&amp;P 500 Index (^GSPC)</text>
<text x="1352" y="728" text-anchor="end" font-family="Arial, Helvetica, sans-serif" font-size="12" font-weight="700" fill="#1677ff">TradingNInvestment.com | TNI Research</text>
</svg>