<svg xmlns="http://www.w3.org/2000/svg" width="1200" height="630" viewBox="0 0 1200 630">
<rect width="1200" height="630" fill="#ffffff"/>
<rect x="0" y="0" width="1200" height="7" fill="#1677ff"/>
<text x="64" y="48" font-family="Arial, Helvetica, sans-serif" font-size="13" font-weight="700" letter-spacing="2" fill="#1677ff">TRADINGNINVESTMENT RESEARCH</text>
<text x="1136" y="48" text-anchor="end" font-family="Arial, Helvetica, sans-serif" font-size="13" font-weight="700" fill="#526b85">98 COMPLETED YEARS OF MARKET HISTORY</text>
<text x="64" y="105" font-family="Arial, Helvetica, sans-serif" font-size="46" font-weight="800" fill="#102a43">S&amp;P 500 Returns by Year</text>
<text x="64" y="143" font-family="Arial, Helvetica, sans-serif" font-size="21" font-weight="500" fill="#536b84">Nearly a Century of Market History · 1928–2026 YTD</text>
<text x="64" y="177" font-family="Arial, Helvetica, sans-serif" font-size="14" fill="#7a8da1">Historical annual price returns · Positive and negative market years</text>
<line x1="64" y1="237.30" x2="1136" y2="237.30" stroke="#e8eef4" stroke-width="1"/>
<line x1="64" y1="281.90" x2="1136" y2="281.90" stroke="#e8eef4" stroke-width="1"/>
<line x1="64" y1="326.50" x2="1136" y2="326.50" stroke="#a8b8c8" stroke-width="1.4"/>
<line x1="64" y1="371.10" x2="1136" y2="371.10" stroke="#e8eef4" stroke-width="1"/>
<line x1="64" y1="415.70" x2="1136" y2="415.70" stroke="#e8eef4" stroke-width="1"/>
<rect x="65.62" y="242.02" width="7.58" height="84.48" rx="1" fill="#168a5b"/>
<rect x="76.45" y="326.50" width="7.58" height="26.56" rx="1" fill="#d64b47"/>
<rect x="87.28" y="326.50" width="7.58" height="63.52" rx="1" fill="#d64b47"/>
<rect x="98.11" y="326.50" width="7.58" height="104.96" rx="1" fill="#d64b47"/>
<rect x="108.94" y="326.50" width="7.58" height="32.96" rx="1" fill="#d64b47"/>
<rect x="119.77" y="228.21" width="7.58" height="98.29" rx="1" fill="#168a5b"/>
<rect x="130.59" y="326.50" width="7.58" height="10.51" rx="1" fill="#d64b47"/>
<rect x="141.42" y="234.25" width="7.58" height="92.25" rx="1" fill="#168a5b"/>
<rect x="152.25" y="264.23" width="7.58" height="62.27" rx="1" fill="#168a5b"/>
<rect x="163.08" y="326.50" width="7.58" height="86.06" rx="1" fill="#d64b47"/>
<rect x="173.91" y="271.75" width="7.58" height="54.75" rx="1" fill="#168a5b"/>
<rect x="184.74" y="326.50" width="7.58" height="11.54" rx="1" fill="#d64b47"/>
<rect x="195.56" y="326.50" width="7.58" height="33.65" rx="1" fill="#d64b47"/>
<rect x="206.39" y="326.50" width="7.58" height="39.84" rx="1" fill="#d64b47"/>
<rect x="217.22" y="298.79" width="7.58" height="27.71" rx="1" fill="#168a5b"/>
<rect x="228.05" y="283.13" width="7.58" height="43.37" rx="1" fill="#168a5b"/>
<rect x="238.88" y="295.73" width="7.58" height="30.77" rx="1" fill="#168a5b"/>
<rect x="249.71" y="257.99" width="7.58" height="68.51" rx="1" fill="#168a5b"/>
<rect x="260.53" y="326.50" width="7.58" height="26.46" rx="1" fill="#d64b47"/>
<rect x="271.36" y="326.50" width="7.58" height="1.00" rx="1" fill="#168a5b"/>
<rect x="282.19" y="326.50" width="7.58" height="1.46" rx="1" fill="#d64b47"/>
<rect x="293.02" y="303.17" width="7.58" height="23.33" rx="1" fill="#168a5b"/>
<rect x="303.85" y="278.15" width="7.58" height="48.35" rx="1" fill="#168a5b"/>
<rect x="314.67" y="290.04" width="7.58" height="36.46" rx="1" fill="#168a5b"/>
<rect x="325.50" y="300.23" width="7.58" height="26.27" rx="1" fill="#168a5b"/>
<rect x="336.33" y="326.50" width="7.58" height="14.77" rx="1" fill="#d64b47"/>
<rect x="347.16" y="226.10" width="7.58" height="100.40" rx="1" fill="#168a5b"/>
<rect x="357.99" y="267.62" width="7.58" height="58.88" rx="1" fill="#168a5b"/>
<rect x="368.82" y="320.67" width="7.58" height="5.83" rx="1" fill="#168a5b"/>
<rect x="379.64" y="326.50" width="7.58" height="31.92" rx="1" fill="#d64b47"/>
<rect x="390.47" y="241.63" width="7.58" height="84.87" rx="1" fill="#168a5b"/>
<rect x="401.30" y="307.60" width="7.58" height="18.90" rx="1" fill="#168a5b"/>
<rect x="412.13" y="326.50" width="7.58" height="6.63" rx="1" fill="#d64b47"/>
<rect x="422.96" y="274.92" width="7.58" height="51.58" rx="1" fill="#168a5b"/>
<rect x="433.79" y="326.50" width="7.58" height="26.34" rx="1" fill="#d64b47"/>
<rect x="444.61" y="284.37" width="7.58" height="42.13" rx="1" fill="#168a5b"/>
<rect x="455.44" y="297.58" width="7.58" height="28.92" rx="1" fill="#168a5b"/>
<rect x="466.27" y="306.29" width="7.58" height="20.21" rx="1" fill="#168a5b"/>
<rect x="477.10" y="326.50" width="7.58" height="29.19" rx="1" fill="#d64b47"/>
<rect x="487.93" y="281.69" width="7.58" height="44.81" rx="1" fill="#168a5b"/>
<rect x="498.76" y="309.42" width="7.58" height="17.08" rx="1" fill="#168a5b"/>
<rect x="509.58" y="326.50" width="7.58" height="25.34" rx="1" fill="#d64b47"/>
<rect x="520.41" y="326.28" width="7.58" height="1.00" rx="1" fill="#168a5b"/>
<rect x="531.24" y="302.45" width="7.58" height="24.05" rx="1" fill="#168a5b"/>
<rect x="542.07" y="291.64" width="7.58" height="34.86" rx="1" fill="#168a5b"/>
<rect x="552.90" y="326.50" width="7.58" height="38.73" rx="1" fill="#d64b47"/>
<rect x="563.73" y="326.50" width="7.58" height="66.27" rx="1" fill="#d64b47"/>
<rect x="574.55" y="256.15" width="7.58" height="70.35" rx="1" fill="#168a5b"/>
<rect x="585.38" y="283.80" width="7.58" height="42.70" rx="1" fill="#168a5b"/>
<rect x="596.21" y="326.50" width="7.58" height="25.65" rx="1" fill="#d64b47"/>
<rect x="607.04" y="324.13" width="7.58" height="2.37" rx="1" fill="#168a5b"/>
<rect x="617.87" y="299.05" width="7.58" height="27.45" rx="1" fill="#168a5b"/>
<rect x="628.69" y="269.02" width="7.58" height="57.48" rx="1" fill="#168a5b"/>
<rect x="639.52" y="326.50" width="7.58" height="21.70" rx="1" fill="#d64b47"/>
<rect x="650.35" y="293.58" width="7.58" height="32.92" rx="1" fill="#168a5b"/>
<rect x="661.18" y="287.99" width="7.58" height="38.51" rx="1" fill="#168a5b"/>
<rect x="672.01" y="323.38" width="7.58" height="3.12" rx="1" fill="#168a5b"/>
<rect x="682.84" y="267.78" width="7.58" height="58.72" rx="1" fill="#168a5b"/>
<rect x="693.66" y="293.90" width="7.58" height="32.60" rx="1" fill="#168a5b"/>
<rect x="704.49" y="321.98" width="7.58" height="4.52" rx="1" fill="#168a5b"/>
<rect x="715.32" y="298.85" width="7.58" height="27.65" rx="1" fill="#168a5b"/>
<rect x="726.15" y="265.73" width="7.58" height="60.77" rx="1" fill="#168a5b"/>
<rect x="736.98" y="326.50" width="7.58" height="14.63" rx="1" fill="#d64b47"/>
<rect x="747.81" y="267.84" width="7.58" height="58.66" rx="1" fill="#168a5b"/>
<rect x="758.63" y="316.54" width="7.58" height="9.96" rx="1" fill="#168a5b"/>
<rect x="769.46" y="310.77" width="7.58" height="15.73" rx="1" fill="#168a5b"/>
<rect x="780.29" y="326.50" width="7.58" height="3.43" rx="1" fill="#d64b47"/>
<rect x="791.12" y="250.43" width="7.58" height="76.07" rx="1" fill="#168a5b"/>
<rect x="801.95" y="281.31" width="7.58" height="45.19" rx="1" fill="#168a5b"/>
<rect x="812.78" y="257.35" width="7.58" height="69.15" rx="1" fill="#168a5b"/>
<rect x="823.60" y="267.03" width="7.58" height="59.47" rx="1" fill="#168a5b"/>
<rect x="834.43" y="282.96" width="7.58" height="43.54" rx="1" fill="#168a5b"/>
<rect x="845.26" y="326.50" width="7.58" height="22.61" rx="1" fill="#d64b47"/>
<rect x="856.09" y="326.50" width="7.58" height="29.09" rx="1" fill="#d64b47"/>
<rect x="866.92" y="326.50" width="7.58" height="52.11" rx="1" fill="#d64b47"/>
<rect x="877.75" y="267.67" width="7.58" height="58.83" rx="1" fill="#168a5b"/>
<rect x="888.57" y="306.44" width="7.58" height="20.06" rx="1" fill="#168a5b"/>
<rect x="899.40" y="319.81" width="7.58" height="6.69" rx="1" fill="#168a5b"/>
<rect x="910.23" y="296.13" width="7.58" height="30.37" rx="1" fill="#168a5b"/>
<rect x="921.06" y="318.63" width="7.58" height="7.87" rx="1" fill="#168a5b"/>
<rect x="931.89" y="326.50" width="7.58" height="85.82" rx="1" fill="#d64b47"/>
<rect x="942.72" y="274.20" width="7.58" height="52.30" rx="1" fill="#168a5b"/>
<rect x="953.54" y="297.99" width="7.58" height="28.51" rx="1" fill="#168a5b"/>
<rect x="964.37" y="326.50" width="7.58" height="1.00" rx="1" fill="#d64b47"/>
<rect x="975.20" y="296.61" width="7.58" height="29.89" rx="1" fill="#168a5b"/>
<rect x="986.03" y="260.49" width="7.58" height="66.01" rx="1" fill="#168a5b"/>
<rect x="996.86" y="301.10" width="7.58" height="25.40" rx="1" fill="#168a5b"/>
<rect x="1007.68" y="326.50" width="7.58" height="1.62" rx="1" fill="#d64b47"/>
<rect x="1018.51" y="305.24" width="7.58" height="21.26" rx="1" fill="#168a5b"/>
<rect x="1029.34" y="283.19" width="7.58" height="43.31" rx="1" fill="#168a5b"/>
<rect x="1040.17" y="326.50" width="7.58" height="13.91" rx="1" fill="#d64b47"/>
<rect x="1051.00" y="262.10" width="7.58" height="64.40" rx="1" fill="#168a5b"/>
<rect x="1061.83" y="290.24" width="7.58" height="36.26" rx="1" fill="#168a5b"/>
<rect x="1072.65" y="266.53" width="7.58" height="59.97" rx="1" fill="#168a5b"/>
<rect x="1083.48" y="326.50" width="7.58" height="43.36" rx="1" fill="#d64b47"/>
<rect x="1094.31" y="272.47" width="7.58" height="54.03" rx="1" fill="#168a5b"/>
<rect x="1105.14" y="274.52" width="7.58" height="51.98" rx="1" fill="#168a5b"/>
<rect x="1115.97" y="289.96" width="7.58" height="36.54" rx="1" fill="#168a5b"/>
<rect x="1126.80" y="300.07" width="7.58" height="26.43" rx="1" fill="#168a5b"/>
<text x="69.41" y="462" text-anchor="middle" font-family="Arial, Helvetica, sans-serif" font-size="12" font-weight="600" fill="#687c91">1928</text>
<text x="199.35" y="462" text-anchor="middle" font-family="Arial, Helvetica, sans-serif" font-size="12" font-weight="600" fill="#687c91">1940</text>
<text x="415.92" y="462" text-anchor="middle" font-family="Arial, Helvetica, sans-serif" font-size="12" font-weight="600" fill="#687c91">1960</text>
<text x="632.48" y="462" text-anchor="middle" font-family="Arial, Helvetica, sans-serif" font-size="12" font-weight="600" fill="#687c91">1980</text>
<text x="849.05" y="462" text-anchor="middle" font-family="Arial, Helvetica, sans-serif" font-size="12" font-weight="600" fill="#687c91">2000</text>
<text x="1065.62" y="462" text-anchor="middle" font-family="Arial, Helvetica, sans-serif" font-size="12" font-weight="600" fill="#687c91">2020</text>
<text x="1130.59" y="462" text-anchor="middle" font-family="Arial, Helvetica, sans-serif" font-size="12" font-weight="600" fill="#687c91">2026</text>
<line x1="64" y1="492" x2="1136" y2="492" stroke="#e4ebf2" stroke-width="1"/>
<text x="64" y="538" font-family="Arial, Helvetica, sans-serif" font-size="30" font-weight="800" fill="#102a43">+8.10%</text>
<text x="64" y="563" font-family="Arial, Helvetica, sans-serif" font-size="11" font-weight="700" letter-spacing="1" fill="#71859a">AVERAGE ANNUAL RETURN</text>
<text x="425" y="538" font-family="Arial, Helvetica, sans-serif" font-size="30" font-weight="800" fill="#102a43">68.37%</text>
<text x="425" y="563" font-family="Arial, Helvetica, sans-serif" font-size="11" font-weight="700" letter-spacing="1" fill="#71859a">NON-NEGATIVE YEARS</text>
<text x="785" y="538" font-family="Arial, Helvetica, sans-serif" font-size="30" font-weight="800" fill="#102a43">+45.02%</text>
<text x="785" y="563" font-family="Arial, Helvetica, sans-serif" font-size="11" font-weight="700" letter-spacing="1" fill="#71859a">BEST YEAR · 1954</text>
<text x="64" y="608" font-family="Arial, Helvetica, sans-serif" font-size="10" fill="#8999a9">S&amp;P 500 price return · Dividends excluded</text>
<text x="1136" y="608" text-anchor="end" font-family="Arial, Helvetica, sans-serif" font-size="13" font-weight="800" fill="#1677ff">TradingNInvestment.com | TNI Research</text>
</svg>